PathFileType	4	(x/y/z)	S10_PSF_T15
DataRate	CameraRate	NumFrames	NumMarkers	Units	OrigDataRate	OrigDataStartFrame	OrigNumFrames
240	240	5	51	mm	240	385	439
Frame#	Time	Sternum			R.Acromium			L.Acromium			Top.Head			R.ASIS			L.ASIS			R.PSIS			L.PSIS			R.Great.Tro			L.Great.Tro			R.Iliac.Crest			L.Iliac.Crest			V.Sacral			R.Thigh.Upper.Post			R.Thigh.Lower.Ant			R.Thigh.Lower.Post			R.Thigh.Upper.Ant			R.Knee.Lat			R.Knee.Med			R.Shank.Upper.Post			R.Shank.Lower.Ant			R.Shank.Lower.Post			R.Shank.Upper.Ant			R.Ankle.Lat			R.Ankle.Med			R.Heel.Upper			R.Heel.Med			R.Heel.Lat			R.Toe.Lat			R.Toe.Med			R.Toe.Tip			L.Thigh.Upper.Post			L.Thigh.Lower.Ant			L.Thigh.Lower.Post			L.Thigh.Upper.Ant			L.Knee.Lat			L.Knee.Med			L.Shank.Upper.Post			L.Shank.Lower.Ant			L.Shank.Lower.Post			L.Shank.Upper.Ant			L.Ankle.Lat			L.Ankle.Med			L.Heel.Upper			L.Heel.Med			L.Heel.Lat			L.Toe.Lat			L.Toe.Med			L.Toe.Tip			Cervical.Spine			Back			
		X1	Y1	Z1	X2	Y2	Z2	X3	Y3	Z3	X4	Y4	Z4	X5	Y5	Z5	X6	Y6	Z6	X7	Y7	Z7	X8	Y8	Z8	X9	Y9	Z9	X10	Y10	Z10	X11	Y11	Z11	X12	Y12	Z12	X13	Y13	Z13	X14	Y14	Z14	X15	Y15	Z15	X16	Y16	Z16	X17	Y17	Z17	X18	Y18	Z18	X19	Y19	Z19	X20	Y20	Z20	X21	Y21	Z21	X22	Y22	Z22	X23	Y23	Z23	X24	Y24	Z24	X25	Y25	Z25	X26	Y26	Z26	X27	Y27	Z27	X28	Y28	Z28	X29	Y29	Z29	X30	Y30	Z30	X31	Y31	Z31	X32	Y32	Z32	X33	Y33	Z33	X34	Y34	Z34	X35	Y35	Z35	X36	Y36	Z36	X37	Y37	Z37	X38	Y38	Z38	X39	Y39	Z39	X40	Y40	Z40	X41	Y41	Z41	X42	Y42	Z42	X43	Y43	Z43	X44	Y44	Z44	X45	Y45	Z45	X46	Y46	Z46	X47	Y47	Z47	X48	Y48	Z48	X49	Y49	Z49	X50	Y50	Z50	X51	Y51	Z51	

385	1.6	573.12	1271.8	324.03	435.49	1424.8	468.65	477.5	1453.8	164.38	413.73	1743.5	350.44	519.18	1008.9	422.04	518.91	1020.2	193.25	318.18	1022.6	338.95	323.8	1031.8	257.63	458.66	930.94	497.57	451.27	956.93	136.27	421.57	1085.3	466.89	454.1	1092.8	166.94	299.92	992.9	299.79	557.86	740.39	499.5	640.72	695.01	460.89	592.02	657.7	492.34	606.87	779.54	462.49	634.1	538.28	452.42	638.07	542.7	325.79	596.86	307.73	451.37	672.57	256.5	446.05	610.1	234.97	447.12	665.1	332.64	450.44	647.55	127.46	431.94	667.88	141.5	354.91	604.01	73.655	375.13	620.47	47.679	349.59	606.76	49.423	409.62	768.91	59.312	479.24	810.03	71.784	377.99	857.59	97.926	426.61	364.08	698.5	147.28	418.36	604.51	175.7	341.75	605.73	175.63	439.27	688.6	154.28	354.54	511.66	186.03	367.53	511.5	314.21	255.62	309.03	200.76	308.42	213.49	220.86	247.45	233.13	216.06	317.13	288.54	205.23	257.97	108.61	234.41	275.22	123.28	320.7	187.9	81.063	284.52	198.85	47.6	316.45	192.16	51.994	251.79	366.99	41.308	206.82	398.97	43.163	314.98	452.45	52.822	264.3	376.58	1493.5	316.42	292.43	1286	293.06
386	1.6042	578.3	1270.6	324.2	440.53	1423.6	468.82	482.97	1453	164.71	418.83	1742.5	350.84	524.49	1008	422.04	524.06	1019.1	193.25	323.39	1021.7	338.95	328.97	1031	257.66	463.81	929.79	497.44	456.2	956.08	136.16	426.82	1084.3	466.86	459.28	1091.9	166.91	305.05	992.1	299.8	561.68	738.45	499.14	644.3	692.61	460.56	595.27	655.54	491.78	611.01	777.37	462.34	637.96	536.63	451.69	641.54	540.62	324.94	606.74	305.37	451.53	683.97	256.23	446.09	622.06	232.96	447.32	674.32	332.17	450.25	662.62	126.4	432.39	682.25	140.82	355.21	620.36	71.293	375.79	637.53	45.722	350.28	623.92	47.234	410.38	785.95	61.589	479.46	826.44	74.922	378.04	873.4	102.38	426.45	367.59	698.46	147.1	421.01	603.93	175.82	344.57	605.73	175.63	442.59	687.96	154.18	356.78	511.49	185.91	369.86	511.32	314.13	256.85	309.3	200.77	309.19	213.49	220.87	248.3	233.41	216.14	318.26	288.5	205.21	258.28	108.82	234.52	275.59	123.47	320.78	188.05	81.261	284.73	198.96	47.736	316.59	192.25	52.247	251.94	367.02	41.299	206.83	399.05	43.056	315.01	452.54	52.625	264.3	381.84	1492.5	316.59	297.62	1285.1	292.88
387	1.6083	583.5	1269.5	324.39	445.6	1422.3	469.01	488.46	1452.2	165.07	423.94	1741.3	351.25	529.83	1006.9	422.04	529.23	1018.1	193.25	328.63	1020.8	338.95	334.16	1030.1	257.7	468.99	928.59	497.3	461.14	955.22	136.05	432.08	1083.2	466.83	464.47	1090.9	166.88	310.21	991.26	299.81	565.49	736.46	498.8	647.84	690.13	460.23	598.48	653.33	491.26	615.14	775.13	462.2	641.77	534.94	450.99	644.9	538.46	324.11	616.49	303.15	451.68	695.15	256.07	446.11	633.84	231.13	447.49	683.36	331.78	450.07	677.44	125.58	432.8	696.37	140.34	355.48	636.47	69.193	376.43	654.32	44.046	350.94	640.83	45.332	411.11	802.64	64.104	479.62	842.47	78.269	378.02	888.81	107.02	426.2	371.12	698.4	146.96	423.71	603.36	175.93	347.44	605.72	175.63	445.95	687.32	154.07	359.08	511.31	185.79	372.26	511.12	314.05	258.12	309.58	200.78	309.99	213.5	220.87	249.17	233.71	216.2	319.43	288.46	205.19	258.59	109.04	234.61	275.97	123.67	320.86	188.2	81.473	284.93	199.07	47.889	316.73	192.34	52.511	252.08	367.06	41.287	206.84	399.12	42.955	315.03	452.64	52.431	264.3	387.11	1491.5	316.78	302.82	1284.1	292.72
388	1.6125	588.7	1268.3	324.59	450.69	1421	469.22	493.95	1451.4	165.44	429.04	1740.2	351.66	535.19	1005.9	422.05	534.41	1017	193.24	333.88	1019.8	338.95	339.36	1029.2	257.74	474.2	927.36	497.17	466.11	954.35	135.93	437.35	1082.1	466.81	469.68	1089.9	166.87	315.39	990.39	299.81	569.31	734.44	498.49	651.36	687.58	459.93	601.67	651.08	490.78	619.28	772.83	462.05	645.54	533.22	450.33	648.14	536.21	323.29	626.09	301.06	451.81	706.09	256.03	446.11	645.43	229.46	447.61	692.22	331.45	449.88	691.98	124.98	433.16	710.19	140.06	355.72	652.3	67.341	377.04	670.79	42.633	351.56	657.44	43.702	411.79	818.94	66.832	479.71	858.09	81.799	377.92	903.8	111.81	425.87	374.66	698.31	146.86	426.45	602.78	176.02	350.35	605.71	175.64	449.36	686.67	153.95	361.44	511.12	185.68	374.74	510.91	313.96	259.44	309.86	200.79	310.81	213.5	220.87	250.09	234.03	216.25	320.64	288.42	205.17	258.91	109.26	234.7	276.36	123.87	320.94	188.36	81.699	285.12	199.19	48.061	316.87	192.43	52.787	252.23	367.09	41.273	206.85	399.2	42.86	315.06	452.73	52.239	264.29	392.4	1490.5	316.99	308.06	1283.1	292.57
389	1.6167	593.92	1267	324.8	455.8	1419.8	469.45	499.45	1450.5	165.82	434.15	1739.1	352.07	540.57	1004.8	422.05	539.6	1016	193.22	339.15	1018.8	338.96	344.58	1028.2	257.77	479.44	926.1	497.05	471.09	953.48	135.8	442.63	1081	466.8	474.9	1088.9	166.85	320.61	989.48	299.81	573.15	732.4	498.21	654.87	684.99	459.63	604.85	648.8	490.33	623.44	770.49	461.91	649.28	531.48	449.72	651.27	533.9	322.5	635.53	299.1	451.92	716.78	256.1	446.09	656.8	227.95	447.69	700.88	331.19	449.68	706.21	124.57	433.47	723.69	139.96	355.92	667.82	65.72	377.6	686.93	41.466	352.12	673.72	42.325	412.43	834.84	69.743	479.72	873.25	85.481	377.74	918.32	116.72	425.45	378.22	698.19	146.8	429.25	602.19	176.09	353.32	605.68	175.66	452.8	686	153.81	363.86	510.92	185.57	377.3	510.68	313.88	260.81	310.15	200.8	311.67	213.5	220.87	251.05	234.36	216.29	321.89	288.37	205.15	259.23	109.5	234.78	276.76	124.09	321.02	188.51	81.944	285.29	199.3	48.255	317	192.52	53.076	252.36	367.12	41.257	206.85	399.27	42.773	315.08	452.82	52.049	264.28	397.71	1489.5	317.23	313.31	1282.1	292.44
